<svg version="1.1" id="Capa_1" xmlns="http://www.w3.org/2000/svg" xmlns:xlink="http://www.w3.org/1999/xlink" x="0px" y="0px" viewBox="0 0 496.941 496.941" style="enable-background:new 0 0 496.941 496.941;" xml:space="preserve">
<g>
	<g>
		<g>
			<path d="M146.824,133.271H54.965C24.847,133.271,0,161.129,0,195.765v156.612c0,4.518,3.012,7.529,7.529,7.529h32.376v110.682     c0,14.306,11.294,25.6,25.6,25.6h71.529c14.306,0,25.6-11.294,25.6-25.6V360.659h32.376c4.518,0,7.529-3.012,7.529-7.529V195.765     C202.541,161.129,177.694,133.271,146.824,133.271z M187.482,345.6h-24.847v-79.812c0-4.518-3.012-7.529-7.529-7.529     s-7.529,3.012-7.529,7.529v205.553c0,6.023-4.518,10.541-10.541,10.541h-28.612V358.4c0-4.518-3.012-7.529-7.529-7.529     s-7.529,3.012-7.529,7.529v123.482H65.506c-6.023,0-10.541-4.518-10.541-10.541V265.788c0-4.518-3.012-7.529-7.529-7.529     s-7.529,3.012-7.529,7.529V345.6H15.059V195.765c0-26.353,18.071-47.435,39.906-47.435h91.859     c22.588,0,40.659,21.082,40.659,47.435V345.6z"/>
			<path d="M100.894,123.482c33.882,0,61.741-27.859,61.741-61.741C162.635,27.859,134.777,0,100.894,0     C67.012,0,39.906,27.859,39.906,61.741C39.906,95.624,67.012,123.482,100.894,123.482z M100.894,15.059     c25.6,0,46.682,21.082,46.682,46.682c0,25.6-21.082,46.682-46.682,46.682c-25.6,0-46.682-21.082-46.682-46.682     C54.965,36.141,75.294,15.059,100.894,15.059z"/>
			<path d="M442.729,145.318c2.259,0,3.765-0.753,5.271-2.259l46.682-49.694c3.012-3.012,3.012-7.529,0-10.541L448,33.129     c-1.506-1.506-3.765-2.259-5.271-2.259h-32.376V7.529c0-4.518-3.012-7.529-7.529-7.529h-40.659c-4.518,0-7.529,3.012-7.529,7.529     v24.094h-70.776c-4.518,0-7.529,3.012-7.529,7.529v99.388c0,4.518,3.012,7.529,7.529,7.529h70.776v42.165h-46.682     c-2.259,0-3.765,0.753-5.271,2.259L256,239.435c-3.012,3.012-3.012,7.529,0,10.541l46.682,49.694     c1.506,1.506,3.765,2.259,5.271,2.259h46.682v179.953h-82.071c-4.518,0-7.529,3.012-7.529,7.529s3.012,7.529,7.529,7.529     c149.082,0,53.459,0,205.553,0c4.518,0,7.529-3.012,7.529-7.529s-3.012-7.529-7.529-7.529h-67.765V301.929h56.471     c4.518,0,7.529-3.012,7.529-7.529v-99.388c0-4.518-3.012-7.529-7.529-7.529h-56.471v-42.165H442.729z M369.694,15.059h25.6     v16.565h-25.6V15.059z M395.294,481.882h-25.6V301.929h25.6V481.882z M459.294,202.541v84.329H310.965l-39.153-42.165     l39.153-42.165c9.788,0,57.224,0,91.859,0H459.294z M369.694,187.482v-42.165h25.6v42.165H369.694z M291.388,131.012V46.682     h148.329l39.153,42.165l-39.153,42.165H291.388z"/>
		</g>
	</g>
</g>
<g>
</g>
<g>
</g>
<g>
</g>
<g>
</g>
<g>
</g>
<g>
</g>
<g>
</g>
<g>
</g>
<g>
</g>
<g>
</g>
<g>
</g>
<g>
</g>
<g>
</g>
<g>
</g>
<g>
</g>
</svg>